<svg width="45" height="21" viewBox="0 0 45 21" fill="none" xmlns="http://www.w3.org/2000/svg">
<rect y="0.941406" width="45" height="20" rx="4" fill="white"/>
<g clip-path="url(#clip0_94_201)">
<path d="M20.0863 10.9414C20.0863 13.8068 17.7418 16.125 14.844 16.125C13.6209 16.125 12.4996 15.7074 11.6113 15.0163C12.8345 14.066 13.6063 12.5973 13.6063 10.9414C13.6063 9.28553 12.82 7.81685 11.6113 6.86653C12.4996 6.17538 13.6209 5.75781 14.844 5.75781C17.7418 5.75781 20.0863 8.09043 20.0863 10.9414Z" fill="#F79E1B"/>
<path d="M11.6113 6.86595C11.6113 6.86595 11.6113 6.86595 11.6113 6.86595C12.8199 7.81628 13.6063 9.28496 13.6063 10.9408C13.6063 12.5967 12.8345 14.0654 11.6113 15.0157L11.5967 15.0157C10.3881 14.0798 9.60178 12.5967 9.60178 10.9409C9.60178 9.28499 10.3881 7.81631 11.5967 6.86598C11.5967 6.86597 11.5968 6.86599 11.5967 6.86598L11.6113 6.86595Z" fill="#FF5F00"/>
<path d="M9.60179 10.9415C9.60179 9.28566 10.3881 7.81697 11.5968 6.86665C10.7085 6.1755 9.58723 5.75793 8.36404 5.75793C5.46624 5.75793 3.1218 8.07615 3.1218 10.9415C3.1218 13.8069 5.46624 16.1251 8.36404 16.1251C9.58723 16.1251 10.7085 15.7076 11.5968 15.0164C10.3881 14.0805 9.60179 12.5974 9.60179 10.9415Z" fill="#EB001B"/>
</g>
<g clip-path="url(#clip1_94_201)">
<path d="M36.4748 7.91288C36.1586 7.78367 35.657 7.64099 35.0368 7.64099C33.4535 7.64099 32.3386 8.51058 32.3317 9.75383C32.3186 10.6711 33.13 11.1806 33.7369 11.4864C34.3572 11.7989 34.568 12.0029 34.568 12.2815C34.5617 12.7093 34.0668 12.9066 33.6052 12.9066C32.9651 12.9066 32.6221 12.8049 32.1009 12.5668L31.8898 12.4648L31.6654 13.8984C32.0414 14.0749 32.7342 14.2314 33.4535 14.2383C35.1358 14.2383 36.231 13.3822 36.244 12.0573C36.2504 11.3303 35.8219 10.7732 34.8982 10.318C34.3374 10.0258 33.994 9.82878 33.994 9.52979C34.0006 9.25799 34.2845 8.9796 34.9175 8.9796C35.4387 8.96596 35.8217 9.095 36.1118 9.22413L36.2568 9.29194L36.4748 7.91288Z" fill="url(#paint0_linear_94_201)"/>
<path d="M30.6628 14.1431H29.0595L30.0623 7.75676H31.6655L30.6628 14.1431Z" fill="url(#paint1_linear_94_201)"/>
<path fillRule="evenodd" clipRule="evenodd" d="M40.5848 7.75676H39.3446C38.9622 7.75676 38.6716 7.87216 38.5066 8.28663L36.1252 14.143H37.8074C37.8074 14.143 38.0844 13.3548 38.1439 13.185H40.2024C40.2484 13.4092 40.3937 14.143 40.3937 14.143H41.8782L40.5848 7.75676ZM38.6057 11.8807C38.7377 11.5138 39.2458 10.0938 39.2458 10.0938C39.2431 10.0993 39.2638 10.0403 39.2946 9.9523L39.295 9.95123L39.2952 9.95052C39.3413 9.81912 39.4096 9.62408 39.4568 9.48238L39.5688 10.0327C39.5688 10.0327 39.8724 11.5614 39.9383 11.8807H38.6057Z" fill="url(#paint2_linear_94_201)"/>
<path d="M27.7204 7.75676L26.1502 12.1116L25.9786 11.2284L25.9785 11.2279L25.4179 8.29359C25.3256 7.8857 25.0419 7.77021 24.6922 7.75676H22.1127L22.0863 7.88579C22.7154 8.0515 23.2781 8.29027 23.7712 8.58716L25.2002 14.1364H26.8956L29.4157 7.75676H27.7204Z" fill="url(#paint3_linear_94_201)"/>
</g>
<defs>
<linearGradient id="paint0_linear_94_201" x1="22.0863" y1="10.9535" x2="41.8782" y2="10.9535" gradientUnits="userSpaceOnUse">
<stop stop-color="#222357"/>
<stop offset="1" stop-color="#254AA5"/>
</linearGradient>
<linearGradient id="paint1_linear_94_201" x1="22.0863" y1="10.9535" x2="41.8782" y2="10.9535" gradientUnits="userSpaceOnUse">
<stop stop-color="#222357"/>
<stop offset="1" stop-color="#254AA5"/>
</linearGradient>
<linearGradient id="paint2_linear_94_201" x1="22.0863" y1="10.9535" x2="41.8782" y2="10.9535" gradientUnits="userSpaceOnUse">
<stop stop-color="#222357"/>
<stop offset="1" stop-color="#254AA5"/>
</linearGradient>
<linearGradient id="paint3_linear_94_201" x1="22.0863" y1="10.9535" x2="41.8782" y2="10.9535" gradientUnits="userSpaceOnUse">
<stop stop-color="#222357"/>
<stop offset="1" stop-color="#254AA5"/>
</linearGradient>
<clipPath id="clip0_94_201">
<rect width="16.9645" height="10.3672" fill="white" transform="translate(3.1218 5.75781)"/>
</clipPath>
<clipPath id="clip1_94_201">
<rect width="19.7919" height="6.5973" fill="white" transform="translate(22.0863 7.64276)"/>
</clipPath>
</defs>
</svg>
