<svg width="39" height="13" viewBox="0 0 39 13" fill="none" xmlns="http://www.w3.org/2000/svg">
<path d="M20.1895 0.941406H36.1895C37.2941 0.941406 38.1895 1.83684 38.1895 2.94141V10.9414C38.1895 12.046 37.2941 12.9414 36.1895 12.9414H20.1895V0.941406Z" fill="#FF0065"/>
<path d="M32.2243 7.57287C32.3096 7.57287 32.3788 7.64185 32.3788 7.72694V8.45137C32.3788 8.53646 32.3096 8.60544 32.2243 8.60544H26.9054C26.8278 8.60544 26.7623 8.54804 26.7522 8.4713L26.6715 7.85426C26.6659 7.81159 26.6785 7.76854 26.7061 7.73553L29.7474 4.10547C29.7767 4.07043 29.8202 4.05019 29.8659 4.05019H30.8906C31.0211 4.05019 31.0928 4.20149 31.01 4.30205L29.6706 5.92868L28.5805 7.32409C28.5014 7.42528 28.5737 7.57287 28.7023 7.57287H32.2243ZM31.4375 4.05019C31.5228 4.05019 31.592 4.11917 31.592 4.20426V9.67855C31.592 9.76364 31.5228 9.83262 31.4375 9.83262H29.9428C29.8575 9.83262 29.7884 9.76364 29.7884 9.67855V4.20426C29.7884 4.11917 29.8575 4.05019 29.9428 4.05019H31.4375Z" fill="white"/>
<rect x="0.810516" y="0.941406" width="21" height="12" rx="2" fill="#0D1BBD"/>
<path d="M6.17249 7.87073H4.77131C4.66609 7.87073 4.58079 7.78543 4.58079 7.68021V6.98498C4.58079 6.87976 4.66609 6.79446 4.77131 6.79446H6.17249C6.38941 6.79446 6.56529 6.76137 6.70013 6.69518C6.83497 6.62898 6.93317 6.53764 6.99472 6.42114C7.05921 6.302 7.09146 6.1683 7.09146 6.02003C7.09146 5.86117 7.05921 5.71423 6.99472 5.5792C6.93317 5.44417 6.83497 5.33561 6.70013 5.25354C6.56529 5.16881 6.38941 5.12645 6.17249 5.12645H5.35171C5.24649 5.12645 5.16119 5.21175 5.16119 5.31697V9.64211C5.16119 9.74733 5.0759 9.83262 4.97068 9.83262H3.80837C3.70316 9.83262 3.61786 9.74733 3.61786 9.64211V4.2407C3.61786 4.13548 3.70316 4.05019 3.80837 4.05019H6.17249C6.68547 4.05019 7.12663 4.13491 7.49598 4.30436C7.86825 4.47381 8.15406 4.7068 8.35338 5.00334C8.55271 5.29722 8.65238 5.63347 8.65238 6.01209C8.65238 6.3854 8.55271 6.71106 8.35338 6.98906C8.15406 7.26707 7.86825 7.48417 7.49598 7.64038C7.12663 7.79394 6.68547 7.87073 6.17249 7.87073Z" fill="white"/>
<path d="M11.2361 5.24859C11.2344 5.25981 11.2317 5.27085 11.2281 5.28159L9.7167 9.70372C9.69035 9.78082 9.6179 9.83262 9.53643 9.83262H8.29818C8.16292 9.83262 8.07073 9.69561 8.1217 9.57032L10.3191 4.16891C10.3483 4.09713 10.418 4.05019 10.4955 4.05019H11.1966C11.3132 4.05019 11.4025 4.15403 11.3849 4.26932L11.2361 5.24859ZM12.6624 9.83262C12.581 9.83262 12.5085 9.78089 12.4822 9.70388L10.9661 5.28038C10.9627 5.27044 10.9601 5.26025 10.9584 5.24989L10.7956 4.27198C10.7763 4.15587 10.8658 4.05019 10.9835 4.05019H11.6949C11.7722 4.05019 11.8419 4.09697 11.8712 4.16857L14.0809 9.56997C14.1322 9.69531 14.04 9.83262 13.9045 9.83262H12.6624ZM12.2742 7.67612C12.3794 7.67612 12.4647 7.76142 12.4647 7.86664V8.56187C12.4647 8.66709 12.3794 8.75239 12.2742 8.75239H9.3707C9.26549 8.75239 9.18019 8.66709 9.18019 8.56187V7.86664C9.18019 7.76142 9.26549 7.67612 9.3707 7.67612H12.2742Z" fill="white"/>
<path d="M14.8589 4.05019C14.9328 4.05019 15 4.09288 15.0314 4.15974L15.9862 6.1935C16.0547 6.33945 16.2623 6.3396 16.331 6.19375L17.2896 4.15949C17.3211 4.09276 17.3882 4.05019 17.462 4.05019H18.6794C18.8247 4.05019 18.9165 4.20621 18.846 4.3332L16.9694 7.71241C16.9536 7.74071 16.9454 7.77254 16.9454 7.80491V9.64211C16.9454 9.74733 16.8601 9.83262 16.7549 9.83262H15.5662C15.461 9.83262 15.3757 9.74733 15.3757 9.64211V7.805C15.3757 7.77257 15.3674 7.74068 15.3516 7.71235L13.4711 4.33335C13.4004 4.20636 13.4922 4.05019 13.6376 4.05019H14.8589Z" fill="white"/>
</svg>
